<!--?xml version="1.0" encoding="utf-8"?-->
<!-- Generator: Adobe Illustrator 22.1.0, SVG Export Plug-In . SVG Version: 6.00 Build 0)  -->
<svg version="1.1" id="_x31__1_" xmlns="http://www.w3.org/2000/svg" xmlns:xlink="http://www.w3.org/1999/xlink" x="0px" y="0px" viewBox="0 0 791.975 800" style="enable-background:new 0 0 791.975 800;" xml:space="preserve">
<style type="text/css">
	.st0{fill:#040000;}
	.st1{fill:#DE4163;}
</style>
<g>
	<g>
		<path class="st0" d="M719.247,395.474c19.842,102.632-53.452,154.893-227.587,177.506
			c-172.663,22.464-273.293-92.816-279.187-172.973l125.034-95.978c-7.445,65.449,96.398,76.956,132.28,53.272
			C609.371,265.096,706.579,329.875,719.247,395.474z"></path>
		<path class="st0" d="M369.387,532.756c54.443,136.142-17.22,176.216,19.822,244.377c20.232,37.242,64.729,20.653,82.92-18.471
			c23.753-51.111-29.448-222.444-48.239-251.091"></path>
		<path class="st0" d="M322.849,495.135c-1.93,146.617-83.42,156.153-75.385,233.329c4.413,42.106,51.901,43.867,83.68,14.699
			c41.535-38.113,58.065-216.761,51.691-250.411"></path>
		<path class="st0" d="M620.068,468.318c69.531,129.087,2.911,177.026,47.429,240.524c24.324,34.73,66.669,13.198,80.277-27.767
			c17.801-53.471-54.523-217.7-76.435-243.956"></path>
		<path class="st0" d="M548.014,496.075c36.683,141.955-39.433,172.543-11.346,244.907c15.339,39.544,61.597,28.717,84.57-7.775
			c30.048-47.718-1-224.414-15.999-255.203"></path>
	</g>
	<g>
		<path class="st1" d="M366.986,339.831c7.724,24.235-26.606,56.865-76.667,72.844c-50.04,15.98-96.938,9.276-104.643-14.959
			c-7.743-24.245,26.607-56.864,76.667-72.844C312.392,308.973,359.231,315.587,366.986,339.831z"></path>
		<path class="st1" d="M207.5,399.338c-42.574,5.142-88.512,27.886-88.512,27.886c6.133,39.134,31.249,61.547,31.249,61.547
			c30.598-40.425,67.04-84.691,67.04-84.691"></path>
		<path class="st1" d="M207.27,412.465c-19.122,43.336-33.3,160.236-33.3,160.236c38.262,10.767,69.181-2.772,69.181-2.772
			c-12.797-47.598-27.457-164.439-27.457-164.439"></path>
	</g>
	<g>
		<path class="st0" d="M410.151,235.519c21.974,74.255-45.727,130.368-141.313,158.605C173.279,422.36,85.957,412.064,63.994,337.8
			C42.031,263.475,93.742,153.179,189.3,124.953C284.877,96.726,388.188,161.184,410.151,235.519z"></path>
		<g>
			<path class="st0" d="M73.991,269.909c-60.427-59.235-37.963-148.379-37.963-148.379c89.033,4.442,132.829,52.041,132.829,52.041"></path>
			<path class="st0" d="M364.885,183.928c18.521-82.529-48.799-145.147-48.799-145.147c-72.294,52.121-83.2,115.84-83.2,115.84"></path>
		</g>
		<g>
			<g>
				<g>
					<path class="st0" d="M2.357,377.544c1.311,4.123,5.754,6.364,9.896,5.073l71.822-23.144c4.123-1.3,6.425-5.693,5.104-9.895
						c-1.321-4.052-5.794-6.364-9.916-5.003L7.439,367.658C3.297,368.939,1.036,373.411,2.357,377.544z"></path>
				</g>
				<g>
					<path class="st0" d="M101.727,359.323l-66.78,52.132c-3.423,2.711-4.023,7.654-1.381,11.036
						c2.702,3.462,7.625,4.052,11.066,1.352l66.771-52.123c3.432-2.711,4.033-7.654,1.37-11.036
						C110.062,357.232,105.158,356.692,101.727,359.323z"></path>
				</g>
			</g>
			<g>
				<g>
					<path class="st0" d="M483.496,235.389c1.14,4.122-1.322,8.455-5.524,9.605l-72.863,19.632c-4.173,1.15-8.505-1.351-9.656-5.554
						c-1.081-4.122,1.39-8.465,5.583-9.616l72.844-19.691C478.082,228.674,482.375,231.186,483.496,235.389z"></path>
				</g>
				<g>
					<path class="st0" d="M390.219,274.092l84.381,7.455c4.313,0.41,7.545,4.192,7.164,8.525c-0.401,4.343-4.193,7.525-8.525,7.194
						l-84.411-7.524c-4.333-0.411-7.514-4.193-7.145-8.526C382.084,276.883,385.877,273.701,390.219,274.092z"></path>
				</g>
			</g>
		</g>
	</g>
	<g>
		<path class="st0" d="M610.602,4.29c-37.883,7.575-64.529,24.264-79.257,49.61c-21.043,36.331-8.176,76.025-7.644,77.696
			c3.382,10.106,14.218,15.529,24.344,12.208c10.116-3.282,15.679-14.179,12.457-24.335c-0.1-0.231-7.854-25.376,4.542-46.408
			c8.926-15.159,26.787-25.515,53.142-30.788c42.835-8.575,87.322,19.761,113.248,72.153
			c31.029,62.668,34.591,164.618-57.574,245.777c-8.026,7.115-8.805,19.291-1.742,27.356c7.084,7.985,19.291,8.805,27.317,1.692
			c108.575-95.577,103.823-217.031,66.69-291.996C732.165,28.654,671.108-7.797,610.602,4.29z"></path>
	</g>
</g>
</svg>
