<!--?xml version="1.0" encoding="utf-8"?-->
<!-- Generator: Adobe Illustrator 22.1.0, SVG Export Plug-In . SVG Version: 6.00 Build 0)  -->
<svg version="1.1" id="_x30_" xmlns="http://www.w3.org/2000/svg" xmlns:xlink="http://www.w3.org/1999/xlink" x="0px" y="0px" viewBox="0 0 800 478.158" style="enable-background:new 0 0 800 478.158;" xml:space="preserve">
<style type="text/css">
	.st0{fill:#040000;}
</style>
<g>
	<path class="st0" d="M633.501,292.146l-29.955,15.669c9.362,4.608,17.513,51.155,12.904,63.598
		c-4.608,12.444-12.904,22.582-19.816,29.033c-6.913,6.453-14.287,18.435-6.913,17.513c7.374-0.922,28.112-7.833,28.112-7.833
		c3.042-1.171-1.382,3.225,5.53,0c2.088-0.976,7.374-9.218,10.139-13.366c2.765-4.147,5.53-20.277,5.991-25.807
		c0.461-5.53,7.373-39.634,7.373-42.398C646.866,325.789,633.501,292.146,633.501,292.146z"></path>
	<path class="st0" d="M247.523,319.373c-1.733-2.365-13.931-31.528-13.931-31.528h-20.53c0,0,3.666,0,5.866,10.857
		c2.2,10.856,8.953,38.268,8.953,38.268l-11.886,46.927c0,0-14.664,24.929-3.666,23.463c10.998-1.467,20.322-8.49,21.056-8.49
		c0.733,0,8.566-8.42,10.18-12.53C260.794,342.485,252.406,326.039,247.523,319.373z"></path>
	<path class="st0" d="M797.389,53.978c-0.237-0.458-1.886-3.737-5.754-7.115c-1.934-1.682-4.438-3.376-7.553-4.639
		c-3.112-1.266-6.828-2.084-11.04-2.08c-0.203,0-0.32,0.004-0.354,0.004h0.027c-3.784,0.032-7.34,1.059-10.408,2.726
		c-0.463,0.253-0.908,0.527-1.349,0.805c-2.17-0.46-4.332-0.682-6.456-0.677c-4.251-0.001-8.323,0.868-12.107,2.3
		c-5.683,2.155-10.747,5.539-15.236,9.386c-1.596,1.37-3.094,2.814-4.546,4.28c-18.782-23.4-44.27-41.953-75.747-49.07
		c-76.523-17.301-104.126-4.821-196.298,3.328C344.514,22.6,254.174,44.191,244.858,48.849c-9.317,4.658-58.17,0.488-98.455,17.589
		c-33.688,14.302-55.482,34.485-65.687,45.595c-10.205,11.111-21.733,22.362-36.674,26.611
		c-14.942,4.251-41.55,43.853-42.037,51.932c-0.487,8.081,36.572,16.891,49.146,15.566c0,0,5.574,40.23-3.238,51.862
		c-8.811,11.634-14.244,10.867-23.613,17.208c-9.369,6.339,19.506,32.738,28.458,35.142c8.951,2.402,57.952-6.362,65.684-9.183
		c7.732-2.822,48.023-7.372,61.955-14.861c13.932-7.49,50.488-7.993,50.488-7.993s-0.665-10.645-3.327-17.3
		c-2.662-6.655,6.654-13.974,8.651-2.662c1.996,11.312,30.609,86.505,30.609,86.505s1.997,8.65,3.327,19.962
		c1.331,11.312-8.651,53.234-13.308,62.55c-4.658,9.315-15.97,23.956-13.974,28.612c1.997,4.658,23.955-1.331,32.605-5.323
		c8.651-3.992,13.309-12.643,13.974-18.632c0.665-5.988,19.962-59.888,19.962-65.876c0-5.989,5.323-86.504,3.993-94.49
		c-1.331-7.985,1.996-15.969,6.654-13.308c4.006,2.289,3.582,26.226,3.385,32.879c1.698,0.751,6.584,4.509,19.239,16.362
		c42.742,40.035,140.403,30.044,194.302,15.404c53.898-14.638,97.151-38.594,97.151-38.594s-4.658-10.647-7.32-19.296
		c-2.662-8.651,1.997-18.633,7.32,0.665c5.323,19.296,27.282,75.191,27.282,75.191s7.985,38.595,4.657,56.561
		c-3.327,17.966-17.301,53.898-17.301,53.898l-6.654,16.636c0,0-1.996,10.646,9.982,8.65c11.977-1.995,29.278-17.301,29.278-17.301
		s6.654-0.665,7.984-5.323c1.331-4.658,3.993-24.62,3.993-42.587c0-17.966,7.319-55.894,18.632-83.843
		c11.312-27.947,43.251-99.813,47.91-157.705c2.488-30.91-8.093-69.507-30.139-101.409c2.759-2.923,5.77-5.663,8.91-7.879
		c2.589-1.833,5.254-3.314,7.908-4.315c1.431-0.539,2.854-0.932,4.275-1.189c-1.962,3.992-3.074,8.383-3.082,12.843
		c0,3.334,0.64,6.727,2.136,9.887c1.485,3.154,3.866,6.041,7.034,8.178l0.005,0.002c2.889,1.971,6.172,3.032,9.376,3.02
		c2.678,0.004,5.229-0.719,7.418-1.908c3.297-1.795,5.833-4.555,7.592-7.763c1.754-3.215,2.75-6.932,2.753-10.848
		c0.004-3.695-0.915-7.579-2.964-11.173c-0.989-1.742-2.245-3.401-3.747-4.938c0.816,0.196,1.583,0.428,2.273,0.706
		c2.624,1.064,4.467,2.666,5.658,4.007c0.592,0.667,1.012,1.258,1.259,1.643c0.125,0.192,0.206,0.332,0.245,0.403l0.028,0.05
		l0.005-0.003c1.465,2.876,4.969,4.051,7.871,2.619C797.631,60.445,798.833,56.903,797.389,53.978z M770.077,75.088
		c-0.631,0.792-1.327,1.363-1.965,1.706c-0.645,0.344-1.21,0.483-1.797,0.487c-0.698-0.011-1.535-0.181-2.757-0.992l0.004,0.003
		c-1.422-0.975-2.33-2.093-2.986-3.457c-0.645-1.36-0.999-3-0.999-4.828c-0.001-1.835,0.364-3.841,1.071-5.772
		c0.684-1.885,1.699-3.681,2.916-5.211c0.672,0.33,1.351,0.687,2.045,1.106l0.003,0.002c2.641,1.608,4.233,3.366,5.236,5.115
		c0.994,1.752,1.414,3.548,1.417,5.327C772.279,71.07,771.355,73.511,770.077,75.088z"></path>
</g>
</svg>
