<!--?xml version="1.0" encoding="utf-8"?-->
<!-- Generator: Adobe Illustrator 22.1.0, SVG Export Plug-In . SVG Version: 6.00 Build 0)  -->
<svg version="1.1" id="_x33_" xmlns="http://www.w3.org/2000/svg" xmlns:xlink="http://www.w3.org/1999/xlink" x="0px" y="0px" viewBox="0 0 800 610.114" style="enable-background:new 0 0 800 610.114;" xml:space="preserve">
<style type="text/css">
	.st0{fill:#040000;}
	.st1{fill:#DE4163;}
</style>
<g>
	<path class="st0" d="M240.564,419.795C179.866,527.447,115.749,501.544,90.503,561.9c-13.744,32.919,20.654,53.4,55.938,44.673
		c46.119-11.417,130.519-136.801,139.391-164.247"></path>
	<path class="st0" d="M218.459,359.497c-96.062,77.702-146.152,30.01-191.816,76.85c-24.954,25.557-0.485,57.212,35.507,62.11
		c47.093,6.401,171.77-79.117,190.109-101.369"></path>
	<path class="st0" d="M572.774,403.151c123.499,3.238,130.667,71.976,195.779,66.048c35.566-3.255,37.535-43.231,13.323-70.341
		c-31.687-35.423-182.035-51.275-210.409-46.258"></path>
	<path class="st0" d="M509.626,461.104c119.171,32.572,109.697,101.083,174.354,110.839c35.322,5.362,46.785-33.029,29.727-65.095
		c-22.303-41.984-164.548-93.267-193.297-95.147"></path>
	<g>
		<path class="st0" d="M598.951,333.089c16.695,86.479-44.547,134.854-191.783,149.626
			c-213.356,21.333-230.296-78.207-235.258-145.807l105.367-80.872c-6.277,55.188,81.23,64.859,111.438,44.892
			C506.372,223.202,588.285,277.824,598.951,333.089z"></path>
	</g>
	<g>
		<path class="st1" d="M152.858,324.479c0.54,21.442,36.882,37.876,81.175,36.729c44.273-1.129,79.696-19.444,79.152-40.887
			c-0.573-21.418-36.907-37.851-81.175-36.705C187.742,284.756,152.285,303.07,152.858,324.479z"></path>
		<path class="st1" d="M306.541,318.13c29.664-20.683,71.301-32.177,71.301-32.177c18.12,28.062,14.895,56.208,14.895,56.208
			c-41.903-8.154-89.649-15.557-89.649-15.557"></path>
		<path class="st1" d="M301.177,321.841c37.139,14.612,114.946,76.225,114.946,76.225c-16.543,29.15-43.096,39.301-43.096,39.301
			c-20.536-36.054-81.006-114.675-81.006-114.675"></path>
	</g>
	<g>
		<path class="st0" d="M61.839,233.759c-2.083,65.264,65.036,96.58,148.977,99.27c83.944,2.74,152.94-24.2,155.047-89.464
			c2.117-65.289-63.513-144.213-147.43-146.886C134.488,93.972,63.951,168.504,61.839,233.759z"></path>
		<g>
			<path class="st0" d="M343.279,190.325c36.679-61.14-0.603-129.044-0.603-129.044c-71.652,22.556-97.235,70.686-97.235,70.686"></path>
			<path class="st0" d="M87.792,182.071C55.139,118.72,96.696,53.347,96.696,53.347c70.049,27.126,92.5,76.815,92.5,76.815"></path>
		</g>
		<g>
			<g>
				<g>
					<path class="st0" d="M2,249.241c-0.033,3.65,2.905,6.653,6.561,6.669l63.602,0.556c3.621,0.025,6.644-2.917,6.674-6.569
						c0.034-3.65-2.939-6.644-6.59-6.678l-63.573-0.557C5.024,242.621,2.025,245.589,2,249.241z"></path>
				</g>
				<g>
					<path class="st0" d="M86.312,260.994l-67.228,24.048c-3.42,1.231-5.249,5.026-4.022,8.475c1.256,3.449,5.021,5.211,8.473,3.988
						l67.255-24.048c3.453-1.223,5.253-5.016,3.993-8.473C93.56,261.534,89.765,259.772,86.312,260.994z"></path>
				</g>
			</g>
		</g>
	</g>
	<g>
		<path class="st0" d="M507.404,3.462c-31.928,6.358-54.37,20.449-66.778,41.815c-17.737,30.574-6.91,64.033-6.455,65.466
			c2.838,8.491,11.99,13.052,20.511,10.296c8.538-2.775,13.204-11.991,10.507-20.507c-0.084-0.236-6.653-21.434,3.786-39.108
			c7.568-12.817,22.618-21.544,44.804-25.962c36.119-7.244,73.595,16.636,95.451,60.811
			c26.152,52.802,29.115,138.733-48.527,207.109c-6.753,5.961-7.408,16.248-1.449,23.019c5.961,6.797,16.261,7.429,23.015,1.476
			c91.5-80.568,87.486-182.917,56.196-246.098C609.854,23.995,558.397-6.748,507.404,3.462z"></path>
	</g>
	<g>
		<g>
			<path class="st0" d="M420.862,226.002c1.311,3.388-0.455,7.242-3.888,8.491l-59.576,22.193c-3.427,1.256-7.247-0.472-8.533-3.904
				c-1.286-3.398,0.485-7.244,3.912-8.508l59.585-22.177C415.782,220.808,419.601,222.569,420.862,226.002z"></path>
		</g>
		<g>
			<path class="st0" d="M345.615,265.758l71.398-0.312c3.652,0,6.641,2.943,6.67,6.594c0,3.676-2.938,6.635-6.59,6.669
				l-71.424,0.312c-3.676,0.024-6.645-2.935-6.669-6.586C339,268.761,341.963,265.784,345.615,265.758z"></path>
		</g>
	</g>
</g>
</svg>
