<!--?xml version="1.0" encoding="utf-8"?-->
<!-- Generator: Adobe Illustrator 22.1.0, SVG Export Plug-In . SVG Version: 6.00 Build 0)  -->
<svg version="1.1" id="_x34_" xmlns="http://www.w3.org/2000/svg" xmlns:xlink="http://www.w3.org/1999/xlink" x="0px" y="0px" viewBox="0 0 800 421.464" style="enable-background:new 0 0 800 421.464;" xml:space="preserve">
<style type="text/css">
	.st0{fill:#040000;}
</style>
<g>
	<path class="st0" d="M592.192,138.175c7.628-4.57,30.517-18.306,52.638-13.724c22.12,4.572,46.535,12.966,52.629,25.93
		c6.103,12.971,6.103,28.988,0,35.857c-6.093,6.862-4.572,20.589-1.521,23.642c3.051,3.053,3.816,11.443-0.765,12.964
		c-4.577,1.528,1.521,7.632-7.633,6.107c2.291,6.103-1.516,11.444-6.859,12.205c-5.337,0.761-23.645,4.577-36.616,4.577
		c-12.966,0-14.492,4.572-9.15,10.68c5.342,6.098,38.142,50.345,42.719,61.02c4.572,10.68,34.321,17.543,45.765,26.699
		c11.437,9.155,26.693,22.124,41.954,18.306c15.248-3.814,29.744-1.524,24.406,5.34c0,0,5.338-2.29,7.624,3.049
		c2.295,5.34-2.286,5.34-6.094,5.34c0,1.53-0.769,5.347-5.342,6.105c-4.577,0-26.706,3.814-23.646,4.58
		c3.051,0.758,6.859,3.81,4.572,6.098c-2.29,2.29-5.333,2.29-14.487-3.814c-9.159-6.099-26.701-3.814-36.62-7.622
		c-9.919-3.817-61.023-34.328-64.834-41.198c-3.813-6.863-48.057-41.188-57.206-52.634c-9.167-11.436-12.97-21.357-20.603-14.494
		c-7.624,6.872-44.244,38.142-48.817,39.665c-4.572,1.53,3.056,16.026,3.056,31.278c0,15.259,1.517,52.634,6.859,51.873
		c5.342-0.765,24.415,1.526,30.513,4.573c6.099,3.051,10.68,10.68,5.342,10.68c-6.102-1.524-6.102-1.524-6.102-1.524
		s0,6.862-7.624,6.105c-9.167-3.056-12.97-3.056-12.97-3.056s-1.526,5.34-7.633,3.812c-6.103-1.524-19.829,0-30.513-3.047
		c-10.68-3.057-9.911-22.887-12.197-28.227c-2.29-5.34-7.632-49.578-9.154-65.593c-1.53-16.021,6.099-43.481,18.304-53.403
		c12.21-9.912,15.256-16.776,15.256-16.776s-25.94,7.622-46.535,0.756c-20.594-6.861-61.778-33.556-66.36-34.321
		c-4.572-0.763,23.65,27.46,24.411,60.262c0.765,32.8-12.201,66.36-22.12,90.01c-9.919,23.644-4.581,28.984,3.047,29.749
		c7.632,0.761,27.462,5.342,35.855,5.342c8.389,0,20.595-0.769,27.458,0.757c6.867,1.526,7.632,2.29,6.867,5.34
		c3.051,3.047,7.632,5.34,3.051,8.396c-4.577,3.049-8.389,4.572-19.069,4.572c-10.675,0-38.906-1.524-49.578-2.289
		c-10.684-0.761-44.244,3.814-43.484-9.156c0.765-12.962,3.047-32.035,8.39-41.189c5.333-9.154-3.821-67.127-9.916-77.805
		c-6.103-10.68-113.655-44.24-114.42-96.112c-0.765-51.869,45.775-128.908,127.391-133.487
		c81.617-4.575,139.899,37.013,163.229,50.345C577.709,129.023,592.192,138.175,592.192,138.175z"></path>
	<path class="st0" d="M280.973,222.851c0,0,1.012,37.634,3.051,48.82c-14.232,2.033-23.39,9.155-39.661,14.232
		c-16.273,5.092-42.715,13.228-49.835,12.212c-7.122-1.022-17.292,0-19.322,10.172c-2.036,10.168-3.053,48.819-12.21,55.934
		c-9.151,7.121-15.252,15.257-10.163,16.272c5.078,1.02,13.217-6.101,13.217-3.047c0,3.047-4.074,9.147,6.103,14.236
		c10.163,5.089,20.339,15.259,21.359,18.306c1.016,3.049,14.232,5.082,12.203,0c5.089,4.069,13.219,3.055,13.219-1.016
		c7.122-1.014,10.175-4.074,4.062-8.137c-6.096-4.065-22.373-10.171-28.469-16.27c-6.101-6.105-5.085-32.549-3.049-38.654
		c2.034-6.099,11.181-18.301,19.326-13.222c8.13,5.092,94.591-8.136,111.875-22.37c17.292-14.236,25.426-37.634,30.513-65.094
		C358.268,217.765,287.089,213.699,280.973,222.851z"></path>
	<path class="st0" d="M301.317,106.905c0,0-53.644,15.512-97.381,60.256c-29.221,29.908-37.614,80.277-89.751,92.305
		c-52.892,12.201-90.485-30.105-90.267-67.131c0.218-37.018,41.992-34.125,51.382-16.084c11.166,21.422,7.51,30.641,19.261,27.358
		c11.756-3.282,8.244-23.422-3.106-41.367c-11.35-17.952-32.931-30.933-64.586-15.761C-4.798,161.656,0.421,199.273,6.867,218.59
		c6.46,19.319,34.088,71.387,110.367,65.282c71.144-5.686,74.246-103.741,159.672-124.08L301.317,106.905z"></path>
	<path class="st0" d="M310.099,83.132c-3.95-6.585-61.183,13.97-76.783,32.476c-19.747,23.403-23.578,46.822-17.052,61.21
		c6.515,14.383,18.945,13.091,25.16,4.491c6.217-8.599,14.502-9.461,6.862,5.564c-7.639,15.028-52.74,19.304-42.784-36.979
		C217.677,81.07,310.099,72.592,312.74,63.383c2.623-9.215,32.908-36.859,61.87-44.756c28.957-7.901,60.555,2.631,60.555,2.631
		s0-13.167,7.892-15.797c7.901-2.632,10.537,3.946,10.537,3.946s13.16-15.795,38.172-3.946
		c25.02,11.846,17.123,40.806,10.532,50.025c0,0,3.95,3.948-5.256,9.214c-9.228,5.264-10.532,7.892-18.442,9.208
		c-5.26,6.59-11.846,7.905-19.747,6.59c-7.896-1.317-22.371-18.429-22.371-18.429s7.896,28.959,13.16,32.901
		c5.273,3.959,21.065,9.225,26.338,13.173c5.26,3.951,10.528,10.53,5.26,13.163c-5.26,2.634-3.955,9.219-7.9,7.898
		c-3.955-1.316-1.314,6.584-7.892,3.95c-6.595-2.629-5.273-7.902-13.164-14.481c-7.905-6.58-21.066-7.9-26.334-18.431
		c-5.26-10.528-11.855-27.65-11.855-27.65s-14.471,5.273-26.326,9.221c-11.846,3.951-22.37,11.851-15.797,18.429
		c6.592,6.582,11.855,7.9,9.219,22.382c-2.627,14.474-17.115,25.007-11.855,27.646c5.273,2.634,14.491-2.639,18.433,1.316
		c1.323,5.268,1.323,5.268,1.323,5.268s5.268,0,4.602,2.624c-0.661,2.64-3.95,3.956-3.95,3.956s1.971,4.603-1.313,5.26
		c-3.294,0.663-2.633,1.32-5.926,1.32c-3.289,0-21.061-5.264-27.644-11.194c-6.587-5.917-3.955-10.528,0-17.765
		c3.946-7.246,0.648-20.402-4.612-21.725c-5.269-1.316-22.376-1.973-32.251-12.506C308.128,96.295,310.099,83.132,310.099,83.132z"></path>
</g>
</svg>
