<!--?xml version="1.0" encoding="utf-8"?-->
<!-- Generator: Adobe Illustrator 22.1.0, SVG Export Plug-In . SVG Version: 6.00 Build 0)  -->
<svg version="1.1" id="_x32_" xmlns="http://www.w3.org/2000/svg" xmlns:xlink="http://www.w3.org/1999/xlink" x="0px" y="0px" viewBox="0 0 800 462.285" style="width: 322px;" xml:space="preserve">
<style type="text/css">
	.st0{fill:#231815;}
</style>
<g>
	<path class="st0" d="M261.933,338.939c-19.79,40.992-66.435,28.977-66.435,28.977s-33.925,38.872-61.488,72.09
		c-27.563,33.218-105.307,22.616-122.976,0c-17.669-22.616-5.654-43.112,4.241-48.766c9.894-5.654,21.909-67.142,36.751-94.706
		c-19.789-29.684,10.601-49.473,10.601-49.473l11.308-41.699c0,0-7.774-24.03,0-31.804c7.775-7.774,19.083-4.241,31.098,7.774
		c0,0,77.075-79.443,134.641-124.89C297.238,10.995,367.933,3.926,491.144,1.906s201.985-4.04,257.531,52.516
		c55.546,56.556,66.952,136.558,19.96,232.498c-28.028,74.138-56.916,141.857-67.009,158.856c-1.414,2.382-3.997,3.814-6.767,3.814
		h-71.156c-5.489,0-8.499-6.39-4.984-10.606c11.538-13.844,24.138-44.518,28.964-60.375c7.069-23.228,11.109-81.804,22.218-94.933
		c11.109-13.129-13.129-1.01-21.209,41.407c-26.258,31.307-174.336,14.139-184.435,11.109c0,0-1.01-36.357-4.04-34.338
		c-3.029,2.02-23.991,140.761-32.071,146.821c-8.079,6.06-62.615,1.01-62.615,1.01s27.65-53.908,27.65-73.097
		c0-19.188-12.119-93.923-7.069-116.142c-10.099,0-9.09,66.656-9.09,66.656s-32.036,2.02-35.066,6.06
		c-3.029,4.04-39.316,112.483-39.316,112.483h-57.168c-4.995,0-8.216-5.312-5.884-9.729c5.449-10.318,13.192-26.269,13.841-34.708
		c1.01-13.129,17.551-61.987,17.551-61.987L261.933,338.939z" style="fill: rgb(0, 0, 0);"></path>
</g>
</svg>
