<!--?xml version="1.0" encoding="utf-8"?-->
<!-- Generator: Adobe Illustrator 22.1.0, SVG Export Plug-In . SVG Version: 6.00 Build 0)  -->
<svg version="1.1" id="_x31__1_" xmlns="http://www.w3.org/2000/svg" xmlns:xlink="http://www.w3.org/1999/xlink" x="0px" y="0px" viewBox="0 0 800 438.871" style="enable-background:new 0 0 800 438.871;" xml:space="preserve">
<style type="text/css">
	.st0{fill:#231815;}
</style>
<g>
	<path class="st0" d="M278.383,328.515c-26.057-11.55-37.309-11.866-60.113-24.975c-17.711-10.181-34.576-21.583-54.394-16.622
		c-16.254,4.068-35.925,9.078-53.963,13.909C69.497,311.648,3.356,239.424,2.058,211.635c-1.298-27.788,19.691-37.264,30.685-36.19
		c10.994,1.074,54.957-40.821,82.143-54.301c0.986-34.567,36.112-33.185,36.112-33.185l32.313-26.639
		c0,0,7.319-23.362,17.825-25.153c10.505-1.791,17.468,7.341,20.236,23.577c0,0,18.637-18.851,86.294-40.684
		C367.695-0.314,381.131,3.782,500.561,1.824c119.43-1.957,195.787-3.916,249.628,50.905
		c53.841,54.82,64.897,132.367,19.347,225.363c-27.168,71.863-55.169,137.504-64.952,153.982c-1.371,2.308-3.875,3.695-6.56,3.695
		h-68.973c-5.32,0-8.237-6.193-4.831-10.28c11.184-13.419,23.398-43.153,28.076-58.523c6.852-22.516,10.768-79.294,21.536-92.02
		c10.768-12.727-12.726-0.979-20.557,40.136c-25.453,30.348-168.986,13.705-178.776,10.769c0,0-0.978-35.242-3.916-33.283
		c-2.937,1.957-23.255,136.442-31.086,142.315c-7.831,5.874-60.694,0.979-60.694,0.979s26.801-52.253,26.801-70.853
		c0-18.6-11.748-91.041-6.853-112.577c-9.789,0-8.81,64.609-8.81,64.609s-31.053,1.958-33.99,5.874
		c-2.937,3.916-38.11,109.031-38.11,109.031h-55.414c-4.841,0-7.964-5.149-5.703-9.43c5.282-10.002,12.788-25.463,13.417-33.643
		c0.979-12.726,17.012-60.085,17.012-60.085L278.383,328.515z" style="fill: rgb(0, 0, 0);"></path>
</g>
</svg>
