<!--?xml version="1.0" encoding="utf-8"?-->
<!-- Generator: Adobe Illustrator 22.1.0, SVG Export Plug-In . SVG Version: 6.00 Build 0)  -->
<svg version="1.1" id="_x32_" xmlns="http://www.w3.org/2000/svg" xmlns:xlink="http://www.w3.org/1999/xlink" x="0px" y="0px" viewBox="0 0 800 718.009" style="enable-background:new 0 0 800 718.009;" xml:space="preserve">
<style type="text/css">
	.st0{fill:#040000;}
	.st1{fill:#DE4163;}
</style>
<g>
	<path class="st0" d="M208.53,441.152c28.735,117.667-34.513,142.144-12.11,202.209c12.219,32.794,50.575,24.395,69.952-5.473
		c25.345-39.092,1.686-185.403-10.359-210.988"></path>
	<path class="st0" d="M183.771,378.747C151.036,495.381,83.944,485.643,73.966,548.99c-5.448,34.563,32.099,46.053,63.644,29.528
		c41.275-21.584,92.471-160.702,94.546-188.866"></path>
	<g>
		<path class="st0" d="M519.841,508.641c-37.283,77.92-111.574,76.64-238.392,6.141C155.731,444.913,145.488,318.93,180.952,262.784
			l130.2-2.38c-37.109,39.853,26.263,98.48,61.71,100.364C510.888,368.067,543.641,458.851,519.841,508.641z"></path>
	</g>
	<g>
		<path class="st1" d="M305.977,272.621c-0.447,21.006-35.993,37.308-79.392,36.44c-43.392-0.86-78.236-18.625-77.822-39.622
			c0.43-21.03,35.968-37.323,79.359-36.439C271.562,233.859,306.389,251.616,305.977,272.621z"></path>
		<path class="st1" d="M165.402,276.53c-34.67-7.374-76.672-1.81-76.672-1.81c-5.655,32.247,8.018,56.428,8.018,56.428
			c34.703-23.403,75.036-48.285,75.036-48.285"></path>
		<path class="st1" d="M161.708,286.749c-26.536,28.743-68.844,116.352-68.844,116.352c27.073,18.649,54.832,16.302,54.832,16.302
			c2.72-40.597,22.469-135.854,22.469-135.854"></path>
	</g>
	<g>
		<path class="st0" d="M61.831,174.835c-7.862,63.537,54.882,100.084,136.597,110.227c81.682,10.109,151.477-10.028,159.331-73.54
			c7.894-63.555-49.12-146.444-130.836-156.595C145.216,44.835,69.717,111.274,61.831,174.835z"></path>
		<g>
			<path class="st0" d="M340.481,157.533c41.241-56.436,10.903-126.066,10.903-126.066C279.441,47.099,250.16,91.813,250.16,91.813"></path>
			<path class="st0" d="M91.781,126.683C65.55,61.922,111.967,1.795,111.967,1.795c65.96,32.756,83.444,83.224,83.444,83.224"></path>
		</g>
		<g>
			<g>
				<g>
					<path class="st0" d="M413.384,235.578c-0.504,3.538-3.827,6.01-7.358,5.473l-61.685-9.142
						c-3.521-0.505-5.976-3.803-5.473-7.358c0.521-3.512,3.82-6.009,7.374-5.473l61.652,9.11
						C411.449,228.725,413.888,232.049,413.384,235.578z"></path>
				</g>
				<g>
					<path class="st0" d="M329.908,234.148l61.487,33.488c3.133,1.744,4.316,5.695,2.613,8.828c-1.737,3.15-5.655,4.332-8.812,2.588
						l-61.487-33.504c-3.166-1.703-4.307-5.638-2.604-8.804C322.832,233.611,326.775,232.445,329.908,234.148z"></path>
				</g>
			</g>
			<g>
				<g>
					<path class="st0" d="M2.038,184.623c-0.388,3.554,2.241,6.737,5.796,7.11l62.049,6.176c3.546,0.363,6.745-2.241,7.101-5.82
						c0.339-3.547-2.265-6.738-5.82-7.101l-62.049-6.208C5.568,178.415,2.377,181.044,2.038,184.623z"></path>
				</g>
				<g>
					<path class="st0" d="M83.299,203.587l-67.777,17.476c-3.497,0.893-5.563,4.447-4.704,7.911
						c0.926,3.497,4.456,5.563,7.945,4.678l67.786-17.483c3.472-0.893,5.563-4.423,4.671-7.911
						C90.293,204.786,86.771,202.71,83.299,203.587z"></path>
				</g>
			</g>
		</g>
	</g>
	<path class="st0" d="M512.542,426.669c68.654,112.664-38.729,214.757-38.729,214.757c36.968,35.232-143.086,28.966-161.595,15.409
		c-26.718-19.534,54.188-36.514,54.188-36.514c-146.112-19.377-84.502-146.137-84.502-146.137"></path>
	<g>
		<path class="st0" d="M492.347,468.316c-8.655,1.596-14.392,9.978-12.805,18.65l1.513,8.275
			c10.068,54.856,26.874,146.666,132.538,129.753c71.481-11.442,132.612-6.382,148.633,12.309c2.852,3.281,5.671,8.522,2.117,19.534
			c-13.665,42.63-124.453,25.8-175.972,10.978c-8.498-2.456-17.359,2.413-19.79,10.904c-2.464,8.505,2.43,17.343,10.929,19.798
			c19.219,5.539,188.445,51.733,215.294-31.876c7.829-24.37-0.198-40.729-8.308-50.17c-35.092-40.894-136.151-29.759-177.955-23.055
			c-69.406,11.102-83.583-36.067-96-103.936l-1.571-8.391C509.385,472.392,501.052,466.688,492.347,468.316z"></path>
	</g>
</g>
</svg>
